<svg xmlns="http://www.w3.org/2000/svg" viewBox="0 0 133.33 25"><defs><style>.cls-1{fill:#fff;}</style></defs><g id="Layer_2" data-name="Layer 2"><g id="Layer_2-2" data-name="Layer 2"><path id="Path_127" data-name="Path 127" class="cls-1" d="M36.66,18.1c.62,0,1.24-.34,1.6-1.36l.8-2.06h4.7l.78,2a1.8,1.8,0,0,0,1.7,1.4c.88,0,1.7-.68,1.6-.92l-4.5-11.4c-.18-.54-.56-.88-1.9-.88s-1.76.34-1.94.88L35.1,17.2C35,17.46,35.82,18.1,36.66,18.1Zm3-5.64,1.76-4.7,1.76,4.7ZM55,8a3.4,3.4,0,0,0-3.2,1.92c0-.16,0-.36-.06-.44A1.58,1.58,0,0,0,50.16,8.1c-.58,0-1.08.22-1.08.32V20.5c0,1,.52,1.36,1.28,1.36h.3c.72,0,1.24-.34,1.24-1.36v-4A3.44,3.44,0,0,0,55,18.24c2.68,0,4.52-2.12,4.52-5.16S57.68,8,55,8Zm-.72,8a2.32,2.32,0,0,1-2.42-2.21V11.84a2.53,2.53,0,0,1,2.46-1.6c1.46,0,2.48,1.14,2.48,2.86S55.84,16,54.32,16Zm6.34-2.9a4.9,4.9,0,0,0,4.62,5.16,5.23,5.23,0,0,0,.56,0,4.91,4.91,0,0,0,5.21-4.6c0-.18,0-.35,0-.52A4.92,4.92,0,0,0,66.38,8a4.17,4.17,0,0,0-.5,0,4.93,4.93,0,0,0-5.22,4.62A3.84,3.84,0,0,0,60.66,13.08Zm7.9,0A2.73,2.73,0,0,1,66,16h-.15a2.74,2.74,0,0,1-2.73-2.76,1.09,1.09,0,0,1,0-.18,2.71,2.71,0,0,1,2.53-2.89h.19a2.71,2.71,0,0,1,2.71,2.72C68.57,13,68.56,13.05,68.56,13.12ZM74,18h.3c.72,0,1.24-.32,1.24-1.34V6.32c0-1.82-.92-2.26-1.76-2.26a1.55,1.55,0,0,0-1.06.32V16.7C72.72,17.74,73.26,18,74,18Zm5.08,0h.3c.72,0,1.24-.32,1.24-1.34V6.32c0-1.82-.92-2.26-1.76-2.26a1.55,1.55,0,0,0-1.06.32V16.7C77.8,17.74,78.34,18,79.08,18Zm3.24-5a4.9,4.9,0,0,0,4.62,5.16,5.23,5.23,0,0,0,.56,0,4.91,4.91,0,0,0,5.21-4.6c0-.18,0-.35,0-.52A4.92,4.92,0,0,0,88,8a4.17,4.17,0,0,0-.5,0,4.93,4.93,0,0,0-5.22,4.62A3.84,3.84,0,0,0,82.32,13.08Zm7.9,0A2.73,2.73,0,0,1,87.67,16h-.15a2.74,2.74,0,0,1-2.73-2.76,1.09,1.09,0,0,1,0-.18,2.71,2.71,0,0,1,2.53-2.89h.19a2.71,2.71,0,0,1,2.71,2.72C90.23,13,90.22,13.05,90.22,13.12Zm4.2,3.22A1.62,1.62,0,0,0,96.06,18h3.08c4.36,0,7-2.5,7-6.52S103.56,5,99.24,5H96a1.5,1.5,0,0,0-1.55,1.45,1.15,1.15,0,0,0,0,.19Zm4.7-.9H97.34V7.54h1.82c2.54,0,4.08,1.42,4.08,3.92S101.68,15.44,99.12,15.44Zm9.14,2.66c.62,0,1.24-.34,1.6-1.36l.8-2.06h4.7l.78,2a1.8,1.8,0,0,0,1.7,1.4c.88,0,1.7-.68,1.6-.92l-4.5-11.4c-.18-.54-.56-.88-1.9-.88s-1.76.34-1.94.88L106.7,17.2C106.62,17.46,107.42,18.1,108.26,18.1Zm3-5.64L113,7.76l1.76,4.7Zm15.44,5.78A6.44,6.44,0,0,0,133.32,12a5,5,0,0,0,0-.55,6.42,6.42,0,0,0-6.07-6.74h-.57A6.49,6.49,0,0,0,120,11c0,.17,0,.33,0,.49a6.42,6.42,0,0,0,6.08,6.74A5.61,5.61,0,0,0,126.66,18.24Zm0-2.62c-2.22,0-3.74-1.68-3.74-4.14s1.5-4.12,3.72-4.12,3.74,1.7,3.74,4.14S128.88,15.62,126.68,15.62Z"/></g><g id="Apollo_Logo" data-name="Apollo Logo"><g id="Layer_2-3" data-name="Layer 2"><g id="Layer_1-2" data-name="Layer 1"><g id="Group_18" data-name="Group 18"><g id="Group_14" data-name="Group 14"><path id="Path_7" data-name="Path 7" class="cls-1" d="M24.8,24.57a1.23,1.23,0,0,0-.19,0,5.16,5.16,0,0,1-1.1-.18c-1-.49-1.08-1-1.11-1.06s-.06-.25-.08-.38a5.51,5.51,0,0,1,.05-.81,8,8,0,0,1,.38-1.44c.15-.4.27-.81.39-1.22s.27-.83.39-1.25c.07-.25.13-.5.18-.76a9.12,9.12,0,0,0,.18-2.55,6.73,6.73,0,0,0-.4-1.72,5,5,0,0,0-.56-1.1,7.29,7.29,0,0,0-.84-1,6,6,0,0,0-.91-.76,7.18,7.18,0,0,0-1-.56c-.26-.13-.58-.32-.85-.44a7.67,7.67,0,0,1-1.61-1c-.15-.1-.16-.17,0-.29l.54-.53,2.28-2.3a.19.19,0,0,1,.27,0h0c.14.09.26.18.4.26A2.19,2.19,0,0,0,23,5.7a1.49,1.49,0,0,0,.73-.53,3.25,3.25,0,0,0,.53-1.11c.22-1.16.39-2.33.5-3.51a.3.3,0,0,0-.27-.33h-.06a34.64,34.64,0,0,0-3.52.49,3.08,3.08,0,0,0-1.11.53A1.49,1.49,0,0,0,19.3,2a2.22,2.22,0,0,0,.25,1.83c.08.14.17.27.26.4a.19.19,0,0,1,0,.27h0l-2.3,2.28L17,7.29c-.12.12-.2.1-.29,0a7.9,7.9,0,0,1-1-1.62c-.12-.26-.3-.59-.43-.84a8.43,8.43,0,0,0-.56-1,6.67,6.67,0,0,0-.76-.91,8,8,0,0,0-1-.84,5,5,0,0,0-1.1-.56,6.73,6.73,0,0,0-1.72-.4,9.16,9.16,0,0,0-2.56.18,5.11,5.11,0,0,0-.75.18l-1.26.38c-.42.14-.82.25-1.22.4a7.72,7.72,0,0,1-1.43.38,5.56,5.56,0,0,1-.82.05L1.69,2.6c-.1,0-.56-.12-1-1.11A4.15,4.15,0,0,1,.46.39C.44.33.45.26.43.2S.35,0,.22,0,0,.11,0,.23A6.76,6.76,0,0,0,.07,1.72a2.66,2.66,0,0,0,.31,1c.07.16.35.59.37.64a.77.77,0,0,1,.07.27c.08.5,1.56,10.29,1.94,12.7a2.78,2.78,0,0,1,.59-.37C3,13.6,1.35,3.47,1.52,3.54a4.23,4.23,0,0,0,2.26.11c.4-.07.79-.17,1.19-.25s.86-.15,1.29-.19a9,9,0,0,1,2.54.18,10.59,10.59,0,0,1,1.14.3,3.71,3.71,0,0,1,1.1.57A10.14,10.14,0,0,1,11.9,5a6.34,6.34,0,0,1,.59.69c.15.19.28.39.41.59a28,28,0,0,0,1.75,3.12l0,0a3.27,3.27,0,0,0,1,.94l0,0a25.63,25.63,0,0,0,3.07,1.72c.2.13.4.26.6.41a7.68,7.68,0,0,1,.69.59c.25.27.48.57.71.86a3.84,3.84,0,0,1,.57,1.1,10.59,10.59,0,0,1,.3,1.14,9,9,0,0,1,.18,2.54c0,.43-.12.86-.2,1.29s-.18.79-.24,1.19a4.14,4.14,0,0,0,.11,2.26c.07.19-12-1.77-12.79-1.9H8.61l-.18,0c.07-.17.14-.33.2-.5a5.8,5.8,0,0,0,.19-1.49c0-.58,0-1.17-.1-1.75A15.32,15.32,0,0,1,6.5,19.52a0,0,0,0,1,0-.06L8.79,17l0,0,3.36-3.34,2.5-2.52a.71.71,0,0,0-.71-.71h-.1L11.42,12.8,8.08,16.16a.48.48,0,0,1-.42.16,12.68,12.68,0,0,0-2.22-.14H5.3c-.07,0-.1.06,0,.12a1.08,1.08,0,0,1,.57.58c0,.05,0,.11,0,.09a3.62,3.62,0,0,0-2.23-.45l-.13,0a2.46,2.46,0,0,0-.66.44s0,0,0,0a3.47,3.47,0,0,0-1,1.33c-.06.12.08.13.43.2.51.11.76.47.65.48a4.07,4.07,0,0,0-1.38.26.37.37,0,0,0-.3.26,4.2,4.2,0,0,1-.44,1c-.1.19-.07.36.13.44a1,1,0,0,0,.43.09c.34,0,.68,0,1-.07s.8-.14,1.2-.23c.08,0,.13.08.17.19a.5.5,0,0,0,.37.36l.08,0c.37.13,5.68,1,10.37,1.73l6.94,1.06a.83.83,0,0,1,.27.07c.05,0,.48.3.63.38a3.18,3.18,0,0,0,1,.31,6.27,6.27,0,0,0,1.5,0,.23.23,0,0,0,.22-.2C25,24.65,24.91,24.6,24.8,24.57Z"/><path id="Path_8" data-name="Path 8" class="cls-1" d="M4,22.7a7,7,0,0,0-.07,1,1.26,1.26,0,0,0,.08.43.29.29,0,0,0,.45.13,3.64,3.64,0,0,1,1-.44.34.34,0,0,0,.27-.3c.28-1.51.47,0,.58,0a5.71,5.71,0,0,0,1.32-.9c-1.27-.2-2.69-.46-3.52-.6Q4,22.35,4,22.7Z"/></g></g></g></g></g></g></svg>