<svg xmlns="http://www.w3.org/2000/svg" viewBox="0 0 200 44.1"><defs><style>.cls-1{fill:#fff;}</style></defs><g id="Layer_2" data-name="Layer 2"><g id="Layer_1-2" data-name="Layer 1"><path class="cls-1" d="M16.25,3.85a1.11,1.11,0,0,0,.54-.41A1.16,1.16,0,0,0,17,2.8a1.19,1.19,0,0,0-.68-1.12,1.19,1.19,0,0,0-.67-.1,1.17,1.17,0,0,0-.61.3,1.06,1.06,0,0,0-.35.58,1.13,1.13,0,0,0,0,.68,1,1,0,0,0,.24.39,1.13,1.13,0,0,0,.37.28,1.36,1.36,0,0,0,.44.11A1.43,1.43,0,0,0,16.25,3.85Z"/><path class="cls-1" d="M6.05,28.67c0,.28,0,.56,0,.85A14.57,14.57,0,0,0,8.09,37a14.43,14.43,0,0,0,5.6,5.36,14.57,14.57,0,0,0,14.93-.64A85.29,85.29,0,0,1,16.86,36,82.83,82.83,0,0,1,6.05,28.67Z"/><path class="cls-1" d="M36.34,34.13A15.9,15.9,0,0,1,35.68,36c1,1.18,1.45,2.11,1.14,2.65s-1.31.63-2.81.35a18.16,18.16,0,0,1-1.9-.47,14.58,14.58,0,0,0-11.5-23.55,14,14,0,0,0-1.71.1l-.37-2a4.29,4.29,0,0,0,2.58-.7A16.3,16.3,0,0,0,23,10.87c.6-.52,1.18-1.12,1.8-1.65a6.3,6.3,0,0,1,1.91-1.38.86.86,0,0,1,.61,0A.37.37,0,0,1,27.5,8a.43.43,0,0,1,0,.31.49.49,0,0,1-.18.2c-.37.29-.81.47-1.19.74a1.44,1.44,0,0,0-.68,1.15,1.21,1.21,0,0,0,.93,1,2.51,2.51,0,0,0,1.46-.14c2.34-.82,3.86-3.08,6-4.3a8.42,8.42,0,0,1,3.92-1.06c.22,0,.51-.08.52-.3a.39.39,0,0,0-.06-.15.33.33,0,0,0-.11-.13,9.71,9.71,0,0,0-8.3-2.56.2.2,0,0,0-.11,0,.23.23,0,0,0-.1.07.44.44,0,0,0-.06.1.37.37,0,0,0,0,.11A11.08,11.08,0,0,1,28.32,6.7c-.32-1.52.52-3.07.45-4.62A2.24,2.24,0,0,0,28,.33,2,2,0,0,0,26.26.09a5.06,5.06,0,0,0-1.59.84c-2,1.41-3.9,3.21-6.33,3.52-.12,0-.27.06-.27.18a.2.2,0,0,0,.06.14A7.42,7.42,0,0,1,19.21,9.3a3.74,3.74,0,0,1-.68,2.08,1.42,1.42,0,0,1-.26.29L17,5c-.06-.36-.38-.48-.73-.41l-.22,0c-.35.07-.61.28-.55.64l1.66,10.06A14.63,14.63,0,0,0,7.09,24a16.38,16.38,0,0,1-1.35-1.41c-1-1.15-1.42-2.06-1.1-2.6S6,19.39,7.5,19.68A14.61,14.61,0,0,1,8.75,18.2C4.2,16.7,1,16.44.18,17.78s1.07,4,4.66,7.24c.48.43,1,.87,1.53,1.31l.21.17.3.25.37.29.29.23.65.5.26.2.45.34.32.23.41.31.33.24.43.3.34.24.47.32.31.22.59.39.22.15c.26.18.53.36.81.53l.26.18.58.37.33.21.55.34.35.22.55.34.34.21.61.36.3.18.92.53.92.53.3.16.63.36.35.19.57.31.35.19.57.3.34.17.62.32.28.14.87.44.24.12.63.31.35.17.51.24.38.18.47.22.38.17.47.21.36.16.51.21.31.13.76.32.34.13.44.18.36.14.25.09c.66.25,1.29.47,1.9.67,4.56,1.52,7.83,1.78,8.61.43S39.91,37.32,36.34,34.13Z"/><path class="cls-1" d="M51.7,29.71c0-6.27,4.52-11,10.68-11a10.52,10.52,0,1,1,.25,21C57,39.77,51.7,35.71,51.7,29.71Zm16.22-.43a5.74,5.74,0,0,0-5.54-6,5.64,5.64,0,0,0-5.5,5.92c0,3.35,2.27,6,5.59,6s5.45-2.72,5.45-5.95Z"/><path class="cls-1" d="M84.68,39.38V31c0-2.06-.7-3-2.38-3-1.84,0-2.6,1-2.6,3.07v8.38H75.15V24.18h4.24v1.61h.06a4.36,4.36,0,0,1,4.14-2.13c2.74,0,5.64,1.53,5.64,6v9.7Z"/><path class="cls-1" d="M95.59,33.16A3.4,3.4,0,0,0,99.15,36a3.17,3.17,0,0,0,2.76-1.42h4.66a7.92,7.92,0,0,1-10.51,4.65,8.2,8.2,0,0,1-2.61-1.75,8.11,8.11,0,0,1-2.36-5.7,8.11,8.11,0,0,1,8-8.16,8,8,0,0,1,8,8.3,5.36,5.36,0,0,1-.11,1.2Zm7-3.06a3.59,3.59,0,0,0-6.91,0Z"/><path class="cls-1" d="M109.26,39.38V19.1h6.85a11.74,11.74,0,0,1,4.85.77A6.5,6.5,0,0,1,124.53,26c0,3.76-2.09,7.07-7.9,7.07h-2.41v6.35Zm7.17-10.9c2.09,0,3.13-.71,3.13-2.44s-1-2.38-3.32-2.38h-2v4.82Z"/><path class="cls-1" d="M125.94,39.38V19.1h4.55V39.38Z"/><path class="cls-1" d="M144.65,39.38V37.74h-.05c-.66,1.34-2.47,2.16-4.47,2.16-4.49,0-7.61-3.52-7.61-8.13s3.26-8.12,7.61-8.12a5.15,5.15,0,0,1,4.47,2.14h.05V24.18h4.55v15.2Zm0-7.61a3.94,3.94,0,0,0-.29-1.48,3.83,3.83,0,0,0-2.09-2.09,3.74,3.74,0,0,0-5.2,3.62,3.64,3.64,0,0,0,.27,1.46,3.87,3.87,0,0,0,.82,1.25,3.82,3.82,0,0,0,1.23.83,4.05,4.05,0,0,0,1.46.3A3.8,3.8,0,0,0,144.65,31.77Z"/><path class="cls-1" d="M161.51,39.38V31c0-2.06-.71-3-2.39-3-1.83,0-2.6,1-2.6,3.07v8.38H152V24.18h4.25v1.61h.05a4.37,4.37,0,0,1,4.14-2.13c2.74,0,5.64,1.53,5.64,6v9.7Z"/><path class="cls-1" d="M172.41,33.16A3.4,3.4,0,0,0,176,36a3.19,3.19,0,0,0,2.77-1.42h4.66c-1.46,3.31-4.22,5.26-7.43,5.26a8,8,0,0,1-7.44-5,8,8,0,0,1-.62-3.09,8.11,8.11,0,0,1,8-8.16,8,8,0,0,1,8,8.3,6,6,0,0,1-.1,1.2Zm7-3.06a3.59,3.59,0,0,0-6.91,0Z"/><path class="cls-1" d="M186.79,39.38V27.63h-2.25V24.18h2.25V19.11h4.54v5.07h2.2v3.45h-2.19V39.38Z"/><path class="cls-1" d="M195.26,39.38V34.73H200v4.65Z"/></g></g></svg>