<svg width="1989" height="959" viewBox="0 0 1989 959" fill="none" xmlns="http://www.w3.org/2000/svg">
<g clip-path="url(#clip0_309_9)">
<path d="M469.809 186.67V691.313H295.648V186.67H21.9673V46.3088H743.959V186.67H469.809ZM859.441 691.313V46.3088H1033.6V691.313H859.441ZM1662.64 360.361L1968.72 691.313H1759.82L1557.96 473.965L1357.04 691.313H1148.61L1454.22 360.361L1163.63 46.3088H1372.53L1557.96 248.166L1744.33 46.3088H1953.23L1662.64 360.361Z" fill="white"/>
<path d="M191.75 839.722C191.75 844.341 191.144 848.354 189.932 851.76C188.719 855.166 187.016 858.111 184.822 860.593C182.686 863.018 180.088 865.01 177.028 866.569C174.026 868.07 170.677 869.282 166.982 870.206C163.345 871.072 159.448 871.678 155.291 872.025C151.134 872.371 146.833 872.544 142.388 872.544H56.0463V753.554H140.829C144.235 753.554 147.641 753.699 151.048 753.987C154.512 754.276 157.803 754.824 160.92 755.633C164.038 756.383 166.925 757.451 169.58 758.837C172.294 760.223 174.632 762.041 176.595 764.293C178.616 766.544 180.175 769.258 181.272 772.433C182.426 775.609 183.004 779.361 183.004 783.692C183.004 791.428 181.098 797.577 177.288 802.138C173.477 806.641 167.473 809.643 159.275 811.144C165.048 811.548 169.985 812.443 174.084 813.829C178.24 815.157 181.618 817.004 184.216 819.371C186.814 821.681 188.719 824.538 189.932 827.945C191.144 831.293 191.75 835.219 191.75 839.722ZM151.654 788.801C151.654 787.3 151.423 785.885 150.961 784.558C150.499 783.172 149.662 781.959 148.45 780.92C147.237 779.881 145.592 779.044 143.513 778.409C141.435 777.774 138.779 777.456 135.546 777.456H88.1753V799.799H135.546C138.779 799.799 141.435 799.511 143.513 798.933C145.592 798.356 147.237 797.577 148.45 796.595C149.662 795.614 150.499 794.459 150.961 793.131C151.423 791.745 151.654 790.302 151.654 788.801ZM159.102 835.999C159.102 833.285 158.64 831.12 157.716 829.503C156.792 827.829 155.349 826.559 153.386 825.693C151.423 824.769 148.883 824.163 145.765 823.874C142.647 823.586 138.924 823.441 134.594 823.441H88.1753V848.642H134.594C138.924 848.642 142.647 848.498 145.765 848.209C148.883 847.921 151.423 847.314 153.386 846.391C155.349 845.467 156.792 844.197 157.716 842.58C158.64 840.906 159.102 838.712 159.102 835.999ZM252.717 753.554V820.584C252.717 825.029 253.093 829.07 253.843 832.708C254.594 836.287 255.979 839.376 258 841.974C260.021 844.514 262.85 846.506 266.487 847.95C270.124 849.335 274.858 850.028 280.69 850.028C285.077 850.028 289.667 849.422 294.459 848.209C299.309 846.997 304.101 845.38 308.835 843.36C313.569 841.339 318.072 839.03 322.345 836.432C326.675 833.776 330.543 831.033 333.949 828.204V753.554H365.992V872.544H333.949V856.263C329.908 858.573 325.607 860.911 321.046 863.278C316.485 865.587 311.635 867.695 306.497 869.6C301.358 871.447 295.903 872.948 290.129 874.103C284.356 875.315 278.265 875.922 271.856 875.922C263.831 875.922 256.643 874.94 250.293 872.977C243.942 871.072 238.573 868.359 234.185 864.837C229.797 861.257 226.42 856.956 224.052 851.933C221.743 846.853 220.588 841.195 220.588 834.959V753.554H252.717ZM403.317 872.544V753.554H435.446V872.544H403.317ZM504.9 821.623C504.9 826.588 505.362 830.658 506.285 833.834C507.209 836.951 508.71 839.434 510.789 841.281C512.867 843.129 515.552 844.399 518.843 845.092C522.191 845.785 526.29 846.131 531.14 846.131H592.107V872.544H524.558C515.205 872.544 507.238 871.794 500.656 870.293C494.132 868.734 488.792 866.367 484.635 863.191C480.478 859.958 477.447 855.888 475.542 850.981C473.695 846.073 472.771 840.242 472.771 833.487V753.554H504.9V821.623ZM684.597 779.448V872.544H652.468V779.448H601.98V753.554H735.172V779.448H684.597ZM977.136 813.136C977.136 823.355 975.259 832.39 971.507 840.242C967.754 848.036 962.385 854.56 955.399 859.814C948.413 865.068 939.926 869.051 929.938 871.765C920.008 874.421 908.836 875.748 896.424 875.748C884.011 875.748 872.781 874.421 862.736 871.765C852.748 869.051 844.232 865.068 837.188 859.814C830.145 854.56 824.718 848.036 820.907 840.242C817.097 832.39 815.192 823.355 815.192 813.136C815.192 802.917 817.097 793.91 820.907 786.116C824.718 778.265 830.145 771.712 837.188 766.458C844.232 761.204 852.748 757.249 862.736 754.594C872.781 751.88 884.011 750.523 896.424 750.523C908.836 750.523 920.008 751.88 929.938 754.594C939.926 757.249 948.413 761.204 955.399 766.458C962.385 771.712 967.754 778.265 971.507 786.116C975.259 793.91 977.136 802.917 977.136 813.136ZM944.66 813.136C944.66 808.69 943.939 804.274 942.495 799.886C941.11 795.44 938.598 791.457 934.961 787.935C931.382 784.413 926.474 781.555 920.239 779.361C914.004 777.168 906.065 776.071 896.424 776.071C889.957 776.071 884.27 776.59 879.363 777.629C874.456 778.611 870.212 779.997 866.633 781.786C863.053 783.576 860.051 785.683 857.626 788.108C855.201 790.475 853.267 793.044 851.824 795.816C850.381 798.529 849.341 801.387 848.706 804.389C848.129 807.334 847.84 810.249 847.84 813.136C847.84 816.08 848.129 819.054 848.706 822.056C849.341 825.058 850.381 827.945 851.824 830.716C853.267 833.429 855.201 835.97 857.626 838.337C860.051 840.704 863.053 842.782 866.633 844.572C870.212 846.304 874.456 847.69 879.363 848.729C884.27 849.71 889.957 850.201 896.424 850.201C906.065 850.201 914.004 849.104 920.239 846.91C926.474 844.716 931.382 841.859 934.961 838.337C938.598 834.815 941.11 830.86 942.495 826.472C943.939 822.027 944.66 817.581 944.66 813.136ZM1119.77 872.544V805.861C1119.77 801.416 1119.39 797.403 1118.64 793.824C1117.89 790.187 1116.48 787.098 1114.4 784.558C1112.38 781.959 1109.52 779.968 1105.82 778.582C1102.19 777.139 1097.48 776.417 1091.71 776.417C1087.32 776.417 1082.7 777.023 1077.85 778.236C1073.06 779.39 1068.3 780.949 1063.56 782.912C1058.83 784.875 1054.3 787.156 1049.97 789.754C1045.69 792.352 1041.88 795.065 1038.54 797.894V872.544H1006.41V753.554H1038.54V769.835C1042.58 767.526 1046.88 765.245 1051.44 762.994C1056 760.684 1060.85 758.606 1065.99 756.759C1071.13 754.911 1076.58 753.41 1082.36 752.255C1088.13 751.101 1094.22 750.523 1100.63 750.523C1108.65 750.523 1115.81 751.505 1122.11 753.468C1128.46 755.373 1133.83 758.115 1138.21 761.695C1142.6 765.217 1145.95 769.518 1148.26 774.598C1150.63 779.621 1151.81 785.25 1151.81 791.486V872.544H1119.77ZM1321.98 779.448V872.544H1289.85V779.448H1239.36V753.554H1372.56V779.448H1321.98ZM1524.8 866.655C1515.04 869.888 1505.29 872.198 1495.53 873.583C1485.83 875.027 1475.9 875.748 1465.74 875.748C1452.75 875.748 1441.17 874.363 1431.01 871.592C1420.91 868.763 1412.39 864.692 1405.46 859.381C1398.54 854.069 1393.25 847.574 1389.62 839.896C1385.98 832.217 1384.16 823.528 1384.16 813.829C1384.16 804.822 1385.98 796.48 1389.62 788.801C1393.31 781.065 1398.51 774.367 1405.21 768.71C1411.96 762.994 1420.1 758.548 1429.63 755.373C1439.15 752.14 1449.78 750.523 1461.5 750.523C1472.29 750.523 1482.16 751.995 1491.11 754.94C1500.12 757.827 1507.83 762.128 1514.24 767.844C1520.7 773.559 1525.7 780.603 1529.22 788.974C1532.8 797.346 1534.59 806.987 1534.59 817.899V825.866H1417.33C1418.37 829.619 1420.07 833.054 1422.44 836.172C1424.86 839.289 1428.13 841.945 1432.22 844.139C1436.32 846.333 1441.35 848.036 1447.29 849.249C1453.3 850.461 1460.46 851.067 1468.77 851.067C1474.66 851.067 1480.43 850.721 1486.09 850.028C1491.75 849.277 1497.03 848.325 1501.94 847.17C1506.85 845.958 1511.26 844.63 1515.19 843.186C1519.17 841.743 1522.38 840.3 1524.8 838.856V866.655ZM1502.63 802.311C1502.34 799.366 1501.45 796.335 1499.95 793.218C1498.5 790.042 1496.19 787.184 1493.02 784.644C1489.84 782.104 1485.69 780.025 1480.55 778.409C1475.41 776.735 1469 775.897 1461.32 775.897C1454.11 775.897 1447.87 776.792 1442.62 778.582C1437.36 780.372 1432.95 782.595 1429.37 785.25C1425.84 787.906 1423.1 790.764 1421.14 793.824C1419.18 796.884 1417.91 799.713 1417.33 802.311H1502.63ZM1673.24 780.487C1672.37 780.199 1671.1 779.823 1669.42 779.361C1667.81 778.842 1665.9 778.351 1663.71 777.889C1661.52 777.37 1659.09 776.937 1656.43 776.59C1653.84 776.244 1651.15 776.071 1648.38 776.071C1642.61 776.071 1637.21 776.792 1632.19 778.236C1627.22 779.621 1622.57 781.498 1618.24 783.865C1613.91 786.174 1609.87 788.83 1606.12 791.832C1602.42 794.776 1599.02 797.807 1595.9 800.925V872.544H1563.77V753.554H1595.9V772.866C1599.77 769.98 1603.72 767.208 1607.76 764.553C1611.86 761.839 1616.11 759.443 1620.5 757.365C1624.94 755.286 1629.62 753.641 1634.52 752.429C1639.43 751.158 1644.63 750.523 1650.11 750.523C1652.19 750.523 1654.3 750.639 1656.43 750.87C1658.63 751.043 1660.74 751.274 1662.76 751.562C1664.84 751.851 1666.77 752.169 1668.56 752.515C1670.35 752.862 1671.91 753.208 1673.24 753.554V780.487ZM1803.14 780.487C1802.27 780.199 1801 779.823 1799.33 779.361C1797.71 778.842 1795.81 778.351 1793.61 777.889C1791.42 777.37 1788.99 776.937 1786.34 776.59C1783.74 776.244 1781.05 776.071 1778.28 776.071C1772.51 776.071 1767.11 776.792 1762.09 778.236C1757.12 779.621 1752.48 781.498 1748.15 783.865C1743.82 786.174 1739.77 788.83 1736.02 791.832C1732.33 794.776 1728.92 797.807 1725.8 800.925V872.544H1693.67V753.554H1725.8V772.866C1729.67 769.98 1733.63 767.208 1737.67 764.553C1741.77 761.839 1746.01 759.443 1750.4 757.365C1754.84 755.286 1759.52 753.641 1764.43 752.429C1769.33 751.158 1774.53 750.523 1780.01 750.523C1782.09 750.523 1784.2 750.639 1786.34 750.87C1788.53 751.043 1790.64 751.274 1792.66 751.562C1794.74 751.851 1796.67 752.169 1798.46 752.515C1800.25 752.862 1801.81 753.208 1803.14 753.554V780.487ZM1924.47 872.544V860.853C1920.37 863.105 1915.95 865.097 1911.22 866.829C1906.54 868.561 1901.66 870.033 1896.58 871.245C1891.5 872.458 1886.25 873.353 1880.82 873.93C1875.45 874.565 1870.02 874.882 1864.54 874.882C1858.13 874.882 1851.92 874.276 1845.92 873.064C1839.97 871.851 1834.69 869.888 1830.07 867.175C1825.45 864.461 1821.73 860.911 1818.9 856.523C1816.13 852.135 1814.74 846.766 1814.74 840.415C1814.74 832.39 1816.94 825.722 1821.32 820.41C1825.71 815.041 1832.41 810.653 1841.41 807.247C1850.42 803.841 1861.8 801.214 1875.54 799.366C1889.33 797.519 1905.64 796.075 1924.47 795.036V792.525C1924.47 790.562 1923.95 788.628 1922.91 786.723C1921.87 784.76 1919.96 783.056 1917.19 781.613C1914.48 780.112 1910.72 778.9 1905.93 777.976C1901.2 777.052 1895.14 776.59 1887.75 776.59C1881.92 776.59 1876.14 776.908 1870.43 777.543C1864.77 778.12 1859.28 778.928 1853.97 779.968C1848.72 781.007 1843.72 782.219 1838.99 783.605C1834.26 784.991 1829.95 786.434 1826.09 787.935V759.357C1830.13 758.317 1834.66 757.307 1839.68 756.326C1844.71 755.344 1849.93 754.507 1855.36 753.814C1860.78 753.064 1866.27 752.486 1871.81 752.082C1877.35 751.62 1882.67 751.389 1887.75 751.389C1897.73 751.389 1906.94 752.226 1915.37 753.901C1923.8 755.517 1931.05 758.058 1937.11 761.522C1943.23 764.986 1947.99 769.373 1951.4 774.685C1954.86 779.997 1956.59 786.318 1956.59 793.651V872.544H1924.47ZM1924.47 818.245C1912.11 818.707 1901.6 819.371 1892.94 820.237C1884.34 821.103 1877.18 822.114 1871.47 823.268C1865.75 824.423 1861.25 825.664 1857.96 826.992C1854.72 828.32 1852.3 829.677 1850.68 831.062C1849.06 832.448 1848.05 833.834 1847.65 835.219C1847.3 836.605 1847.13 837.875 1847.13 839.03C1847.13 840.415 1847.51 841.772 1848.26 843.1C1849.01 844.37 1850.31 845.496 1852.15 846.477C1854.06 847.459 1856.57 848.238 1859.69 848.816C1862.81 849.393 1866.73 849.682 1871.47 849.682C1876.72 849.682 1881.86 849.277 1886.88 848.469C1891.9 847.661 1896.67 846.564 1901.17 845.178C1905.67 843.735 1909.89 842.061 1913.81 840.155C1917.8 838.192 1921.35 836.114 1924.47 833.92V818.245Z" fill="white"/>
</g>
<defs>
<clipPath id="clip0_309_9">
<rect width="1987.41" height="958.373" fill="white" transform="translate(0.930664 0.313477)"/>
</clipPath>
</defs>
</svg>
