<svg width="175" height="131" viewBox="0 0 175 131" fill="none" xmlns="http://www.w3.org/2000/svg">
<g clip-path="url(#clip0_44_90)">
<path d="M144.518 90.4748H144.256C142.537 90.386 136.688 89.9814 133.204 88.3778L132.81 88.1952V90.5735H174.985V86.1327H149.544C149.366 87.3401 148.761 88.4434 147.838 89.2406C146.915 90.0379 145.736 90.476 144.518 90.4748V90.4748Z" fill="white"/>
<path d="M130.163 46.9003H169.905V72.0651H138.432C138.476 72.1983 138.516 72.3315 138.55 72.4697C138.757 73.2723 138.951 74.1243 139.132 75.0256H140.117V79.7971C141.672 80.053 143.24 80.2276 144.813 80.3201C145.793 80.3728 146.737 80.7089 147.53 81.2878C148.324 81.8667 148.932 82.6635 149.283 83.5817H159.99V80.2905H154.866V75.0256H172.851V43.9397H126.482C127.889 44.6797 129.138 45.685 130.163 46.9003V46.9003Z" fill="white"/>
<path d="M127.64 59.4975H128.005C128.901 59.5094 129.791 59.6591 130.641 59.9415C131.48 58.3442 131.915 56.5653 131.908 54.7606C131.908 51.8161 130.74 48.9922 128.66 46.9102C126.581 44.8281 123.761 43.6584 120.821 43.6584C117.88 43.6584 115.06 44.8281 112.981 46.9102C110.902 48.9922 109.733 51.8161 109.733 54.7606C109.732 56.3911 110.091 58.0018 110.783 59.4777L127.64 59.4975Z" fill="white"/>
<path d="M117.559 63.1488C120.564 63.1488 123.447 64.3445 125.573 66.4728C127.698 68.6011 128.892 71.4877 128.892 74.4976V98.4289H133.49C135.09 98.4302 136.625 99.0674 137.757 100.201C138.888 101.334 139.525 102.871 139.526 104.473C139.526 105.605 139.207 106.713 138.605 107.671L145.996 126.386C146.441 127.515 147.214 128.484 148.216 129.167C149.218 129.85 150.402 130.215 151.614 130.215C152.371 130.215 153.122 130.071 153.826 129.791C154.564 129.5 155.237 129.067 155.808 128.515C156.378 127.964 156.834 127.305 157.151 126.577C157.467 125.849 157.637 125.066 157.65 124.272C157.664 123.478 157.522 122.689 157.231 121.951L147.159 96.3762C146.715 95.247 145.941 94.2779 144.939 93.595C143.937 92.9121 142.753 92.547 141.541 92.5472H131.706V77.1375C132.059 77.3396 132.441 77.4845 132.839 77.5668V86.9419L133.706 87.3416C137.092 88.8909 143.158 89.2758 144.34 89.3153H144.547C145.558 89.3167 146.53 88.9293 147.264 88.2333C147.998 87.5373 148.436 86.5857 148.489 85.5751C148.543 84.5303 148.18 83.5069 147.481 82.7297C146.781 81.9525 145.803 81.4851 144.759 81.4303C142.812 81.3188 140.875 81.0782 138.959 80.7099C138.618 78.0211 138.125 75.3539 137.481 72.7213C134.687 61.6685 129.991 60.4695 127.705 60.6077H108.935C107.395 60.5772 105.885 61.0329 104.619 61.9103C104.456 62.0189 104.293 62.1324 104.126 62.2607C103.781 62.5311 103.452 62.821 103.14 63.1291L117.559 63.1488Z" fill="white"/>
<path d="M128.513 125.321H117.499C117.499 125.261 117.499 125.197 117.499 125.138V109.038H133.48C134.688 109.035 135.846 108.553 136.7 107.698C137.554 106.842 138.035 105.683 138.038 104.473V104.473C138.035 103.264 137.554 102.104 136.7 101.249C135.846 100.393 134.688 99.9118 133.48 99.9092H127.369C127.369 99.6624 127.404 99.4157 127.404 99.169V74.4976C127.396 71.8827 126.355 69.3772 124.509 67.5281C122.662 65.6791 120.16 64.6369 117.549 64.6291H99.479C96.8677 64.6369 94.3655 65.6791 92.5189 67.5281C90.6724 69.3772 89.6316 71.8827 89.6238 74.4976V99.169C89.6316 101.784 90.6724 104.289 92.5189 106.139C94.3655 107.988 96.8677 109.03 99.479 109.038H108.383V125.138C108.383 125.197 108.383 125.261 108.383 125.321H97.3651C96.6144 125.323 95.8952 125.623 95.3644 126.155C94.8336 126.686 94.5343 127.406 94.5317 128.158V128.158C94.5343 128.91 94.8336 129.63 95.3644 130.161C95.8952 130.693 96.6144 130.992 97.3651 130.995H128.493C129.244 130.992 129.963 130.693 130.494 130.161C131.024 129.63 131.324 128.91 131.326 128.158V128.158C131.324 127.41 131.027 126.692 130.501 126.161C129.974 125.63 129.26 125.328 128.513 125.321V125.321Z" fill="white"/>
<path d="M15.1131 59.9563C15.4789 60.0675 15.8591 60.124 16.2415 60.1241C16.8452 60.1242 17.4408 59.9854 17.9825 59.7185C18.5241 59.4515 18.9973 59.0636 19.3656 58.5846C21.7176 55.5213 24.2448 52.597 26.9345 49.8263V124.901C26.9345 125.703 27.0922 126.496 27.3985 127.236C27.7049 127.977 28.154 128.649 28.7201 129.215C29.2862 129.782 29.9582 130.231 30.6977 130.537C31.4372 130.843 32.2297 131.001 33.0299 131C34.6453 131 36.1944 130.357 37.3366 129.214C38.4788 128.07 39.1205 126.519 39.1205 124.901V80.3596H41.4069V124.901C41.4069 126.519 42.0486 128.07 43.1908 129.214C44.333 130.357 45.8821 131 47.4975 131C48.2977 131.001 49.0902 130.843 49.8297 130.537C50.5693 130.231 51.2412 129.782 51.8073 129.215C52.3734 128.649 52.8225 127.977 53.1289 127.236C53.4353 126.496 53.593 125.703 53.593 124.901V50.9513C54.4208 52.925 55.2388 55.777 55.7759 60.0402C55.8855 60.8907 56.1676 61.7098 56.6048 62.4472C57.0421 63.1846 57.6253 63.8247 58.3186 64.3281C60.743 66.1686 64.8969 66.6768 68.7553 66.6768C71.4968 66.6584 74.2335 66.4457 76.945 66.0403C77.8464 65.906 78.6736 65.4631 79.2856 64.787C79.476 64.8601 79.678 64.8985 79.8819 64.9005H80.9955V65.5863C80.9955 65.747 81.0271 65.9062 81.0886 66.0546C81.15 66.2031 81.24 66.338 81.3535 66.4516C81.4669 66.5653 81.6017 66.6554 81.7499 66.7169C81.8982 66.7784 82.0571 66.81 82.2176 66.81H88.7368C88.8973 66.81 89.0562 66.7784 89.2045 66.7169C89.3528 66.6554 89.4875 66.5653 89.601 66.4516C89.7144 66.338 89.8045 66.2031 89.8659 66.0546C89.9273 65.9062 89.9589 65.747 89.9589 65.5863V58.2145H80.9955V59.6702H79.8819C79.7438 59.6706 79.6063 59.6888 79.4729 59.7244C79.0434 59.1715 78.4748 58.743 77.8253 58.4829C77.1758 58.2228 76.4689 58.1404 75.7772 58.2441C70.9776 58.9645 65.3848 58.9399 63.4926 58.2441C62.2853 49.545 59.6293 43.6782 55.6084 40.8114C53.882 39.5108 51.7541 38.8593 49.5966 38.9709H30.7435C30.5787 38.9724 30.4141 38.9839 30.2507 39.0054C30.1244 38.9979 29.9977 38.9979 29.8713 39.0054C28.8217 39.0054 26.0869 39.0054 19.4346 46.1996L18.5673 34.8508C18.488 33.8072 17.9981 32.8379 17.2052 32.156C16.4124 31.4741 15.3816 31.1353 14.3394 31.2142C13.2973 31.2936 12.3293 31.7842 11.6483 32.5781C10.9673 33.372 10.629 34.4042 10.7078 35.4478L12.3092 56.5023C12.3754 57.2937 12.6784 58.0466 13.1786 58.6628C13.6788 59.279 14.353 59.7298 15.1131 59.9563ZM80.9955 60.884V63.6768H80.01C80.2953 63.0085 80.3908 62.2742 80.2859 61.555C80.2482 61.3272 80.1921 61.1028 80.1184 60.884H80.9955ZM42.3579 50.9118H50.3654V52.8855H42.3579V50.9118Z" fill="white"/>
<path d="M29.1765 25.071C29.1765 28.0155 30.3446 30.8394 32.4239 32.9214C34.5031 35.0035 37.3232 36.1731 40.2637 36.1731C43.2042 36.1731 46.0243 35.0035 48.1035 32.9214C50.1828 30.8394 51.3509 28.0155 51.3509 25.071C51.3509 22.1266 50.1828 19.3027 48.1035 17.2207C46.0243 15.1386 43.2042 13.9689 40.2637 13.9689C37.3232 13.9689 34.5031 15.1386 32.4239 17.2207C30.3446 19.3027 29.1765 22.1266 29.1765 25.071V25.071ZM47.0638 28.3227L46.6992 29.7537C46.6598 29.7537 43.1069 28.9543 37.2874 33.0942L36.43 31.8902C42.8753 27.3013 46.8963 28.2783 47.0638 28.3227V28.3227Z" fill="white"/>
<path d="M25.9193 28.6681H1.93652V30.1484H25.9193V28.6681Z" fill="white"/>
<path d="M2.7989 26.1862C2.7989 26.5107 2.92765 26.822 3.15683 27.0515C3.38601 27.281 3.69685 27.4099 4.02096 27.4099H10.5402C10.8643 27.4099 11.1752 27.281 11.4043 27.0515C11.6335 26.822 11.7623 26.5107 11.7623 26.1862V18.7848H2.7989V20.2355H1.69018C1.24192 20.2355 0.812011 20.4138 0.495041 20.7312C0.178071 21.0486 7.22693e-06 21.479 7.22693e-06 21.9279V23.7832C-0.00064326 24.0056 0.0426245 24.226 0.127333 24.4316C0.212043 24.6373 0.33652 24.8241 0.493598 24.9814C0.650675 25.1387 0.837262 25.2633 1.04262 25.3481C1.24797 25.433 1.46804 25.4763 1.69018 25.4756H2.7989V26.1862ZM1.69018 24.2717C1.62852 24.2723 1.56736 24.2607 1.51027 24.2374C1.45317 24.214 1.40131 24.1795 1.35771 24.1359C1.31411 24.0922 1.27964 24.0403 1.25635 23.9831C1.23306 23.9259 1.22141 23.8647 1.22207 23.8029V21.9476C1.22804 21.8253 1.27927 21.7095 1.3658 21.6228C1.45233 21.5362 1.56796 21.4849 1.69018 21.4789H2.7989V24.2717H1.69018Z" fill="white"/>
<path d="M5.98221 15.3456C6.80019 15.0397 9.63359 14.5561 8.67271 17.9213C10.4861 16.964 11.0675 16.2387 10.9985 15.089C10.7965 12.8686 8.12573 12.5627 6.75585 13.3275C5.52394 14.0183 4.68132 15.015 2.05981 13.8209C2.56736 14.7337 4.61232 15.9574 5.98221 15.3456Z" fill="white"/>
<path d="M17.02 27.4099H23.5393C23.863 27.4086 24.1731 27.2793 24.402 27.05C24.6309 26.8208 24.76 26.5103 24.7613 26.1862V18.7848H15.793V20.2355H14.6843C14.2365 20.2368 13.8073 20.4155 13.4906 20.7326C13.1739 21.0497 12.9954 21.4794 12.9941 21.9279V23.7832C12.9941 24.2321 13.1722 24.6625 13.4892 24.9799C13.8062 25.2973 14.2361 25.4756 14.6843 25.4756H15.793V26.1664C15.7911 26.329 15.8214 26.4904 15.8822 26.6412C15.9429 26.7919 16.033 26.9291 16.1471 27.0448C16.2613 27.1605 16.3972 27.2523 16.547 27.315C16.6969 27.3776 16.8576 27.4099 17.02 27.4099ZM14.6843 24.2717C14.5621 24.2657 14.4465 24.2144 14.3599 24.1278C14.2734 24.0411 14.2222 23.9253 14.2162 23.8029V21.9476C14.2222 21.8253 14.2734 21.7095 14.3599 21.6228C14.4465 21.5362 14.5621 21.4849 14.6843 21.4789H15.793V24.2717H14.6843Z" fill="white"/>
<path d="M23.9976 15.089C23.7907 12.8686 21.1199 12.5627 19.7549 13.3275C18.523 14.0183 17.6804 15.015 15.054 13.8209C15.5467 14.7387 17.6114 15.9624 18.9961 15.3505C19.819 15.0446 22.6474 14.5611 21.6915 17.9262C23.4851 16.964 24.0666 16.2387 23.9976 15.089Z" fill="white"/>
<path d="M89.1951 54.4892C88.9881 52.2737 86.3223 51.9678 84.9524 52.7326C83.7205 53.4184 82.8778 54.4152 80.2563 53.226C80.7491 54.1438 82.8089 55.3675 84.1985 54.7556C85.0164 54.4497 87.8449 53.9661 86.8889 57.3313C88.6826 56.3642 89.2641 55.6389 89.1951 54.4892Z" fill="white"/>
<path d="M44.186 6.89812L44.3585 7.55931C46.3295 7.04121 47.5368 6.13331 47.9754 4.86026C48.6997 2.7632 47.0145 0.503301 46.9455 0.419418L46.3985 0.833895C46.3985 0.833895 47.9409 2.89643 47.3299 4.65303C46.9504 5.6991 45.9107 6.45897 44.186 6.89812Z" fill="white"/>
<path d="M50.8926 3.57242C49.2418 2.64971 49.0201 0.0246714 49.0201 0L48.3401 0.0493457C48.3401 0.172703 48.5865 3.06418 50.5575 4.16453C51.0608 4.44372 51.6281 4.58658 52.2034 4.579C53.2249 4.53642 54.2215 4.25055 55.1107 3.74511L54.8002 3.13821C53.1938 3.9721 51.8781 4.11519 50.8926 3.57242Z" fill="white"/>
<path d="M51.5676 7.5889C50.7397 9.69584 52.6024 12.1975 52.6812 12.3061L53.2233 11.8965C53.2233 11.8719 51.5134 9.58728 52.2032 7.83561C52.5975 6.84876 53.6815 6.18263 55.4949 5.86191L55.3766 5.18591C53.3563 5.55105 52.0554 6.36027 51.5676 7.5889Z" fill="white"/>
<path d="M44.5654 9.03465L44.9153 9.62183C46.5316 8.65965 47.8374 8.43267 48.7884 8.94584C50.4392 9.83401 50.5919 12.686 50.5969 12.7156L51.2769 12.686C51.2769 12.5528 51.1044 9.41953 49.1136 8.34386C47.9359 7.70733 46.4034 7.94418 44.5654 9.03465Z" fill="white"/>
</g>
<defs>
<clipPath id="clip0_44_90">
<rect width="175" height="131" fill="white"/>
</clipPath>
</defs>
</svg>
