<?xml version="1.0" encoding="utf-8"?>
<!-- Generator: Adobe Illustrator 26.0.2, SVG Export Plug-In . SVG Version: 6.00 Build 0)  -->
<svg version="1.1" id="Layer_1" xmlns="http://www.w3.org/2000/svg" xmlns:xlink="http://www.w3.org/1999/xlink" x="0px" y="0px"
	 viewBox="0 0 607 117" style="enable-background:new 0 0 607 117;" xml:space="preserve">
<style type="text/css">
	.st0{fill:#239CB6;}
	.st1{fill:#F5B920;stroke:#F5B920;stroke-width:3;stroke-miterlimit:10;}
</style>
<g>
	<path class="st0" d="M7.2,94.6l6.9-15.3c7.4,5.4,18.4,9.2,29,9.2c12,0,16.9-4,16.9-9.4c0-16.4-51-5.1-51-37.7C9,26.4,21,14,46,14
		c11,0,22.3,2.6,30.5,7.8l-6.3,15.4c-8.2-4.6-16.5-6.9-24.3-6.9c-12,0-16.7,4.5-16.7,10c0,16.2,51,5,51,37.2
		c0,14.7-12.2,27.2-37.2,27.2C29,104.8,15,100.6,7.2,94.6z"/>
	<path class="st0" d="M88.6,59.4c0-26.1,20.3-45.4,48-45.4c27.6,0,48,19.2,48,45.4s-20.4,45.4-48,45.4
		C108.9,104.8,88.6,85.4,88.6,59.4z M164.1,59.4c0-16.7-11.8-28.1-27.4-28.1s-27.4,11.4-27.4,28.1s11.8,28.1,27.4,28.1
		C152.3,87.4,164.1,76.1,164.1,59.4z"/>
	<path class="st0" d="M199.9,15.5h20.3v71.2h44v16.6h-64.3L199.9,15.5L199.9,15.5z"/>
	<path class="st0" d="M353.8,15.5l-38,87.7h-20.1l-37.9-87.7h21.9l26.7,62.7l27.1-62.7H353.8z"/>
	<path class="st0" d="M429,86.9v16.3h-67.9V15.5h66.3v16.3h-46.1v19H422v15.8h-40.7v20.3H429z"/>
</g>
<path class="st1" d="M436.9,58.5c0-25.6,19.4-44.5,45.5-44.5c12.4,0,23.6,4,31.2,12.2l-4,4.1c-7.5-7.4-16.7-10.4-27-10.4
	c-22.4,0-39.4,16.5-39.4,38.6s16.9,38.6,39.4,38.6c10.3,0,19.4-3.1,27-10.5l4,4.1c-7.6,8.2-18.8,12.3-31.2,12.3
	C456.4,103,436.9,84.1,436.9,58.5z"/>
<path class="st1" d="M511.6,58.5c0-25.6,19.4-44.5,45.5-44.5c12.4,0,23.6,4,31.2,12.2l-4,4.1c-7.5-7.4-16.7-10.4-27-10.4
	c-22.4,0-39.4,16.5-39.4,38.6s16.9,38.6,39.4,38.6c10.3,0,19.4-3.1,27-10.5l4,4.1c-7.7,8.2-18.8,12.3-31.2,12.3
	C531,103,511.6,84.1,511.6,58.5z"/>
</svg>
